# xmcd
#
# Track frame offsets: 
#        150
#        19404
#        32748
#        48131
#        61262
#        76981
#        90313
#        107235
#        118963
#        131668
#        145838
#        160617
#        174519
#        187225
#        200985
#
# Disc length: 2906 seconds
#
# Revision: 0
# Processed by: cddbd v1.5.2PL0 Copyright (c) Steve Scherf et al.
# Submitted via: ExactAudioCopy v0.90b4
#
DISCID=d20b580f
DTITLE=Billy Ray Reynolds - Whole Lot Of Memories
DYEAR=2002
DGENRE=Country
TTITLE0=Saratoga
TTITLE1=Number One Thrill (with Bonnie Bramlett)
TTITLE2=Tumbleweed
TTITLE3=Whole Lot Of Memories
TTITLE4=It'll Be Her
TTITLE5=Cleaning The House
TTITLE6=Atlanta's Burning Down
TTITLE7=Steel Ball
TTITLE8=Two Step Me (with Merle Haggard)
TTITLE9=Made Of Stone
TTITLE10=Old Pro
TTITLE11=Love At First Sight
TTITLE12=Whatever Turns You On
TTITLE13=Devil On The Run
TTITLE14=I Am The River
EXTD=
EXTT0=
EXTT1=
EXTT2=
EXTT3=
EXTT4=
EXTT5=
EXTT6=
EXTT7=
EXTT8=
EXTT9=
EXTT10=
EXTT11=
EXTT12=
EXTT13=
EXTT14=
PLAYORDER=
